<mxfile host="app.diagrams.net" agent="Mozilla/5.0 (Macintosh; Intel Mac OS X 10_15_7) AppleWebKit/537.36 (KHTML, like Gecko) Chrome/133.0.0.0 Safari/537.36" version="26.1.0">
  <diagram id="C5RBs43oDa-KdzZeNtuy" name="Page-1">
    <mxGraphModel dx="1781" dy="605" grid="1" gridSize="10" guides="1" tooltips="1" connect="1" arrows="1" fold="1" page="1" pageScale="1" pageWidth="827" pageHeight="1169" math="0" shadow="0">
      <root>
        <mxCell id="WIyWlLk6GJQsqaUBKTNV-0" />
        <mxCell id="WIyWlLk6GJQsqaUBKTNV-1" parent="WIyWlLk6GJQsqaUBKTNV-0" />
        <mxCell id="nERVmw4V_uBVeB2J8nC3-8" style="edgeStyle=orthogonalEdgeStyle;rounded=0;orthogonalLoop=1;jettySize=auto;html=1;" edge="1" parent="WIyWlLk6GJQsqaUBKTNV-1" source="WIyWlLk6GJQsqaUBKTNV-6" target="nERVmw4V_uBVeB2J8nC3-5">
          <mxGeometry relative="1" as="geometry">
            <mxPoint x="290" y="452.5" as="sourcePoint" />
            <mxPoint x="350" y="370" as="targetPoint" />
            <Array as="points">
              <mxPoint x="340" y="475" />
              <mxPoint x="340" y="330" />
            </Array>
          </mxGeometry>
        </mxCell>
        <mxCell id="nERVmw4V_uBVeB2J8nC3-9" value="No" style="edgeLabel;html=1;align=center;verticalAlign=middle;resizable=0;points=[];" vertex="1" connectable="0" parent="nERVmw4V_uBVeB2J8nC3-8">
          <mxGeometry x="-0.2667" y="1" relative="1" as="geometry">
            <mxPoint as="offset" />
          </mxGeometry>
        </mxCell>
        <mxCell id="nERVmw4V_uBVeB2J8nC3-11" value="" style="edgeStyle=orthogonalEdgeStyle;rounded=0;orthogonalLoop=1;jettySize=auto;html=1;" edge="1" parent="WIyWlLk6GJQsqaUBKTNV-1" source="WIyWlLk6GJQsqaUBKTNV-6" target="nERVmw4V_uBVeB2J8nC3-10">
          <mxGeometry relative="1" as="geometry" />
        </mxCell>
        <mxCell id="nERVmw4V_uBVeB2J8nC3-17" value="" style="edgeStyle=orthogonalEdgeStyle;rounded=0;orthogonalLoop=1;jettySize=auto;html=1;" edge="1" parent="WIyWlLk6GJQsqaUBKTNV-1" source="WIyWlLk6GJQsqaUBKTNV-6" target="nERVmw4V_uBVeB2J8nC3-16">
          <mxGeometry relative="1" as="geometry" />
        </mxCell>
        <mxCell id="WIyWlLk6GJQsqaUBKTNV-6" value="Interrupt?&lt;div&gt;(RTC Alarm or UART wake-up Request?)&lt;/div&gt;" style="rhombus;whiteSpace=wrap;html=1;shadow=0;fontFamily=Helvetica;fontSize=12;align=center;strokeWidth=1;spacing=6;spacingTop=-4;" parent="WIyWlLk6GJQsqaUBKTNV-1" vertex="1">
          <mxGeometry x="125" y="412.5" width="190" height="125" as="geometry" />
        </mxCell>
        <mxCell id="nERVmw4V_uBVeB2J8nC3-3" value="" style="edgeStyle=orthogonalEdgeStyle;rounded=0;orthogonalLoop=1;jettySize=auto;html=1;" edge="1" parent="WIyWlLk6GJQsqaUBKTNV-1" source="nERVmw4V_uBVeB2J8nC3-0" target="nERVmw4V_uBVeB2J8nC3-2">
          <mxGeometry relative="1" as="geometry" />
        </mxCell>
        <mxCell id="nERVmw4V_uBVeB2J8nC3-0" value="Start / Reset" style="ellipse;whiteSpace=wrap;html=1;" vertex="1" parent="WIyWlLk6GJQsqaUBKTNV-1">
          <mxGeometry x="160" y="40" width="120" height="80" as="geometry" />
        </mxCell>
        <mxCell id="nERVmw4V_uBVeB2J8nC3-6" value="" style="edgeStyle=orthogonalEdgeStyle;rounded=0;orthogonalLoop=1;jettySize=auto;html=1;" edge="1" parent="WIyWlLk6GJQsqaUBKTNV-1" source="nERVmw4V_uBVeB2J8nC3-2" target="nERVmw4V_uBVeB2J8nC3-5">
          <mxGeometry relative="1" as="geometry" />
        </mxCell>
        <mxCell id="nERVmw4V_uBVeB2J8nC3-2" value="&lt;div&gt;Initialize System&amp;nbsp;&lt;/div&gt;&lt;div&gt;(I/O, I2C, RTC, UART,&lt;/div&gt;&lt;div&gt;UART Wake-Up, etc.ï¼‰&lt;/div&gt;&lt;div&gt;&lt;span style=&quot;background-color: transparent; color: light-dark(rgb(0, 0, 0), rgb(255, 255, 255));&quot;&gt;Configure RTC Alarm for 10 min intervals&lt;/span&gt;&lt;/div&gt;" style="rounded=0;whiteSpace=wrap;html=1;" vertex="1" parent="WIyWlLk6GJQsqaUBKTNV-1">
          <mxGeometry x="135" y="150" width="170" height="100" as="geometry" />
        </mxCell>
        <mxCell id="nERVmw4V_uBVeB2J8nC3-7" value="" style="edgeStyle=orthogonalEdgeStyle;rounded=0;orthogonalLoop=1;jettySize=auto;html=1;" edge="1" parent="WIyWlLk6GJQsqaUBKTNV-1" source="nERVmw4V_uBVeB2J8nC3-5" target="WIyWlLk6GJQsqaUBKTNV-6">
          <mxGeometry relative="1" as="geometry" />
        </mxCell>
        <mxCell id="nERVmw4V_uBVeB2J8nC3-5" value="Enter Sleep Mode" style="rounded=0;whiteSpace=wrap;html=1;" vertex="1" parent="WIyWlLk6GJQsqaUBKTNV-1">
          <mxGeometry x="160" y="300" width="120" height="60" as="geometry" />
        </mxCell>
        <mxCell id="nERVmw4V_uBVeB2J8nC3-13" value="" style="edgeStyle=orthogonalEdgeStyle;rounded=0;orthogonalLoop=1;jettySize=auto;html=1;" edge="1" parent="WIyWlLk6GJQsqaUBKTNV-1" source="nERVmw4V_uBVeB2J8nC3-10" target="nERVmw4V_uBVeB2J8nC3-12">
          <mxGeometry relative="1" as="geometry" />
        </mxCell>
        <mxCell id="nERVmw4V_uBVeB2J8nC3-10" value="&lt;div&gt;&lt;span style=&quot;background-color: transparent; color: light-dark(rgb(0, 0, 0), rgb(255, 255, 255));&quot;&gt;Read RTC Time (I2C)&lt;/span&gt;&lt;/div&gt;" style="whiteSpace=wrap;html=1;shadow=0;strokeWidth=1;spacing=6;spacingTop=-4;" vertex="1" parent="WIyWlLk6GJQsqaUBKTNV-1">
          <mxGeometry x="-110" y="437.5" width="150" height="75" as="geometry" />
        </mxCell>
        <mxCell id="nERVmw4V_uBVeB2J8nC3-15" value="" style="edgeStyle=orthogonalEdgeStyle;rounded=0;orthogonalLoop=1;jettySize=auto;html=1;" edge="1" parent="WIyWlLk6GJQsqaUBKTNV-1" source="nERVmw4V_uBVeB2J8nC3-12" target="nERVmw4V_uBVeB2J8nC3-14">
          <mxGeometry relative="1" as="geometry" />
        </mxCell>
        <mxCell id="nERVmw4V_uBVeB2J8nC3-12" value="&lt;div&gt;&lt;span style=&quot;background-color: transparent; color: light-dark(rgb(0, 0, 0), rgb(255, 255, 255));&quot;&gt;Blink LED&lt;/span&gt;&lt;/div&gt;" style="whiteSpace=wrap;html=1;shadow=0;strokeWidth=1;spacing=6;spacingTop=-4;" vertex="1" parent="WIyWlLk6GJQsqaUBKTNV-1">
          <mxGeometry x="-110" y="592.5" width="150" height="75" as="geometry" />
        </mxCell>
        <mxCell id="nERVmw4V_uBVeB2J8nC3-21" value="" style="edgeStyle=orthogonalEdgeStyle;rounded=0;orthogonalLoop=1;jettySize=auto;html=1;" edge="1" parent="WIyWlLk6GJQsqaUBKTNV-1" source="nERVmw4V_uBVeB2J8nC3-14" target="nERVmw4V_uBVeB2J8nC3-5">
          <mxGeometry relative="1" as="geometry">
            <mxPoint x="-180" y="660" as="targetPoint" />
            <Array as="points">
              <mxPoint x="-35" y="910" />
              <mxPoint x="-200" y="910" />
              <mxPoint x="-200" y="330" />
            </Array>
          </mxGeometry>
        </mxCell>
        <mxCell id="nERVmw4V_uBVeB2J8nC3-14" value="Send Time to nRF&lt;div&gt;(via UART)&lt;/div&gt;" style="whiteSpace=wrap;html=1;shadow=0;strokeWidth=1;spacing=6;spacingTop=-4;" vertex="1" parent="WIyWlLk6GJQsqaUBKTNV-1">
          <mxGeometry x="-110" y="747.5" width="150" height="72.5" as="geometry" />
        </mxCell>
        <mxCell id="nERVmw4V_uBVeB2J8nC3-19" value="" style="edgeStyle=orthogonalEdgeStyle;rounded=0;orthogonalLoop=1;jettySize=auto;html=1;" edge="1" parent="WIyWlLk6GJQsqaUBKTNV-1" source="nERVmw4V_uBVeB2J8nC3-16" target="nERVmw4V_uBVeB2J8nC3-18">
          <mxGeometry relative="1" as="geometry" />
        </mxCell>
        <mxCell id="nERVmw4V_uBVeB2J8nC3-16" value="Read RTC Time (I2C)" style="whiteSpace=wrap;html=1;shadow=0;strokeWidth=1;spacing=6;spacingTop=-4;" vertex="1" parent="WIyWlLk6GJQsqaUBKTNV-1">
          <mxGeometry x="150" y="592.5" width="140" height="77.5" as="geometry" />
        </mxCell>
        <mxCell id="nERVmw4V_uBVeB2J8nC3-23" value="" style="edgeStyle=orthogonalEdgeStyle;rounded=0;orthogonalLoop=1;jettySize=auto;html=1;entryX=0;entryY=0.5;entryDx=0;entryDy=0;" edge="1" parent="WIyWlLk6GJQsqaUBKTNV-1" source="nERVmw4V_uBVeB2J8nC3-18" target="nERVmw4V_uBVeB2J8nC3-5">
          <mxGeometry relative="1" as="geometry">
            <mxPoint x="95" y="860" as="targetPoint" />
            <Array as="points">
              <mxPoint x="220" y="910" />
              <mxPoint x="-200" y="910" />
              <mxPoint x="-200" y="330" />
            </Array>
          </mxGeometry>
        </mxCell>
        <mxCell id="nERVmw4V_uBVeB2J8nC3-18" value="Send Time to nRF&lt;div&gt;(via UART)&lt;/div&gt;" style="whiteSpace=wrap;html=1;shadow=0;strokeWidth=1;spacing=6;spacingTop=-4;" vertex="1" parent="WIyWlLk6GJQsqaUBKTNV-1">
          <mxGeometry x="145" y="747.5" width="150" height="72.5" as="geometry" />
        </mxCell>
      </root>
    </mxGraphModel>
  </diagram>
</mxfile>
